<svg width="32" height="32" viewBox="0 0 32 32" fill="none" xmlns="http://www.w3.org/2000/svg">
  <!-- Background circle -->
  <circle cx="16" cy="16" r="16" fill="#1e40af"/>
  
  <!-- Airplane body -->
  <path d="M8 16L12 14L16 16L20 14L24 16L22 18L18 20L16 18L14 20L10 18L8 16Z" fill="white"/>
  
  <!-- Airplane wings -->
  <path d="M6 14L10 12L14 14L18 12L22 14L20 16L16 14L12 16L8 14L6 14Z" fill="#fbbf24"/>
  
  <!-- Airplane tail -->
  <path d="M22 18L24 20L22 22L20 20L22 18Z" fill="#fbbf24"/>
  
  <!-- Window -->
  <circle cx="16" cy="16" r="2" fill="#1e40af"/>
</svg>
